# File created by Blade
# Date/Time:  Wed Jan 21 15:15:34 2015
#---------------------------------------------------------
:version 1.10
:name HOM
:units
  mass 1.0
  length 1.000000
  angle deg
:documentation
     Acclaim Skeleton File
:root
   axis xyz
   order TX TY TZ RX RY RZ
   position 0.000000 0.000000 0.000000
   orientation 0 0 0
:bonedata
   begin
      id 1
      name Spine_dum
      direction 0.000000 1.000000 0.000000
      length 7.067664
      axis 0.0 0.0 0.0 xyz
   end
   begin
      id 2
      name LeftUpLeg_dum
      direction 1.000000 0.000000 0.000000
      length 4.013002
      axis 0.0 0.0 0.0 xyz
   end
   begin
      id 3
      name RightUpLeg_dum
      direction -1.000000 0.000000 0.000000
      length 4.013002
      axis 0.0 0.0 0.0 xyz
   end
   begin
      id 4
      name Spine
      direction 0.000000 1.000000 0.000000
      length 0.000000
      axis 0.0 0.0 0.0 xyz
      dof rx ry rz
   end
   begin
      id 5
      name Spine_dum1
      direction 0.000000 1.000000 0.000000
      length 15.039886
      axis 0.0 0.0 0.0 xyz
   end
   begin
      id 6
      name Spine_dum2
      direction 0.000000 1.000000 0.000000
      length 10.530368
      axis 0.0 0.0 0.0 xyz
   end
   begin
      id 7
      name Spine_dum3
      direction 0.000000 1.000000 0.000000
      length 10.530368
      axis 0.0 0.0 0.0 xyz
   end
   begin
      id 8
      name Head
      direction 0.000000 1.000000 0.000000
      length 4.527550
      axis 0.0 0.0 0.0 xyz
      dof rx ry rz
   end
   begin
      id 9
      name LeftShoulder
      direction 1.000000 0.000000 0.000000
      length 7.028855
      axis 0.0 0.0 -90.0 xyz
      dof rx ry rz
   end
   begin
      id 10
      name LeftArm
      direction 1.000000 0.000000 0.000000
      length 10.797705
      axis 0.0 0.0 -90.0 xyz
      dof rx ry rz
   end
   begin
      id 11
      name LeftForeArm
      direction 1.000000 0.000000 0.000000
      length 7.907442
      axis 0.0 0.0 -90.0 xyz
      dof ry rz rx
   end
   begin
      id 12
      name LeftHand
      direction 0.000000 0.000000 0.000000
      length 0.000000
      axis 0.0 0.0 -90.0 xyz
      dof rx ry rz
   end
   begin
      id 13
      name LeftHand_dum1
      direction 0.000000 0.000000 0.000000
      length 0.000000
      axis 0.0 0.0 -90.0 xyz
   end
   begin
      id 14
      name LeftHand_dum2
      direction 1.000000 0.000000 0.000000
      length 3.937000
      axis 0.0 0.0 -90.0 xyz
   end
   begin
      id 15
      name LeftHandThumb1
      direction 0.000000 0.000000 1.000000
      length 3.937000
      axis 0.0 0.0 -90.0 xyz
      dof rx rz ry
   end
   begin
      id 16
      name RightShoulder
      direction -1.000000 0.000000 0.000000
      length 7.028855
      axis 0.0 0.0 90.0 xyz
      dof rx ry rz
   end
   begin
      id 17
      name RightArm
      direction -1.000000 0.000000 0.000000
      length 10.797705
      axis 0.0 0.0 90.0 xyz
      dof rx ry rz
   end
   begin
      id 18
      name RightForeArm
      direction -1.000000 0.000000 0.000000
      length 7.907442
      axis 0.0 0.0 90.0 xyz
      dof ry rz rx
   end
   begin
      id 19
      name RightHand
      direction 0.000000 0.000000 0.000000
      length 0.000000
      axis 0.0 0.0 90.0 xyz
      dof rx ry rz
   end
   begin
      id 20
      name RightHand_dum1
      direction 0.000000 0.000000 0.000000
      length 0.000000
      axis 0.0 0.0 90.0 xyz
   end
   begin
      id 21
      name RightHand_dum2
      direction -1.000000 0.000000 0.000000
      length 3.937000
      axis 0.0 0.0 90.0 xyz
   end
   begin
      id 22
      name RightHandThumb1
      direction 0.000000 0.000000 1.000000
      length 3.937000
      axis 0.0 0.0 90.0 xyz
      dof rx rz ry
   end
   begin
      id 23
      name LeftUpLeg
      direction 0.000000 -1.000000 0.000000
      length 16.899758
      axis 0.0 0.0 0.0 xyz
      dof rx ry rz
   end
   begin
      id 24
      name LeftLeg
      direction 0.000000 -1.000000 0.000000
      length 17.389183
      axis 0.0 0.0 0.0 xyz
      dof rx ry rz
   end
   begin
      id 25
      name LeftFoot
      direction 0.000000 -0.258819 0.965926
      length 4.924528
      axis 15.0 0.0 0.0 xyz
      dof rx ry rz
   end
   begin
      id 26
      name LeftToeBase
      direction 0.000000 0.000000 1.000000
      length 2.952750
      axis 0.0 0.0 0.0 xyz
      dof rx ry rz
   end
   begin
      id 27
      name RightUpLeg
      direction 0.000000 -1.000000 0.000000
      length 16.899758
      axis 0.0 0.0 0.0 xyz
      dof rx ry rz
   end
   begin
      id 28
      name RightLeg
      direction 0.000000 -1.000000 0.000000
      length 17.389183
      axis 0.0 0.0 0.0 xyz
      dof rx ry rz
   end
   begin
      id 29
      name RightFoot
      direction 0.000000 -0.258819 0.965926
      length 4.924528
      axis 15.0 0.0 0.0 xyz
      dof rx ry rz
   end
   begin
      id 30
      name RightToeBase
      direction 0.000000 0.000000 1.000000
      length 2.952750
      axis 0.0 0.0 0.0 xyz
      dof rx ry rz
   end
:hierarchy
   begin
      root Spine_dum LeftUpLeg_dum RightUpLeg_dum
      Spine_dum Spine
      LeftUpLeg_dum LeftUpLeg
      RightUpLeg_dum RightUpLeg
      Spine Spine_dum1 Spine_dum2 Spine_dum3
      Spine_dum1 Head
      Spine_dum2 LeftShoulder
      Spine_dum3 RightShoulder
      LeftShoulder LeftArm
      LeftArm LeftForeArm
      LeftForeArm LeftHand
      LeftHand LeftHand_dum1 LeftHand_dum2
      LeftHand_dum1 LeftHandThumb1
      RightShoulder RightArm
      RightArm RightForeArm
      RightForeArm RightHand
      RightHand RightHand_dum1 RightHand_dum2
      RightHand_dum1 RightHandThumb1
      LeftUpLeg LeftLeg
      LeftLeg LeftFoot
      LeftFoot LeftToeBase
      RightUpLeg RightLeg
      RightLeg RightFoot
      RightFoot RightToeBase
   end

# File created by Blade
# Date/Time:  Wed Jan 21 15:15:22 2015
# Frame Rate: 120.000 fps
#------------------------------------------------------
:FULLY-SPECIFIED
:DEGREES
90
root 16.442266 35.355201 -21.384821 111.037151 -88.079876 -101.868173
Spine -20.293624 -0.733761 3.377451
Head 8.214086 0.768795 -0.686316
LeftShoulder -15.027552 -33.778353 22.018253
LeftArm -0.361116 3.293825 -7.206709
LeftForeArm 12.836455 -0.000000 -2.439547
LeftHand -8.018888 0.000000 -7.287449
LeftHandThumb1 -26.253704 0.000000 33.147579
RightShoulder -12.172481 -2.607256 -12.524704
RightArm 6.485718 34.961737 8.753114
RightForeArm -39.480749 -0.000000 4.804010
RightHand -6.198882 0.000000 12.425602
RightHandThumb1 -24.326973 -0.000000 -32.862282
LeftUpLeg -1.721232 12.399848 4.672544
LeftLeg -5.451241 -0.000000 0.000000
LeftFoot -20.096770 27.309014 -13.290630
LeftToeBase 26.990273 -0.000000 -0.000000
RightUpLeg -2.544850 -9.041245 -0.779587
RightLeg -1.942535 -0.000000 0.000000
RightFoot -21.387139 -22.445460 17.111183
RightToeBase 24.540464 -0.000000 -0.000000
91
root 16.439899 35.355097 -21.392529 110.731778 -88.071047 -101.575066
Spine -20.253728 -0.725542 3.390464
Head 8.239663 0.749406 -0.695177
LeftShoulder -15.026697 -33.747916 21.978123
LeftArm -0.295085 3.353378 -7.258705
LeftForeArm 12.869729 -0.000000 -2.409837
LeftHand -8.085489 -0.000000 -7.155276
LeftHandThumb1 -26.253704 0.000000 33.147579
RightShoulder -12.178578 -2.593163 -12.515027
RightArm 6.492151 34.814061 8.746519
RightForeArm -39.351513 -0.000000 4.820784
RightHand -6.252754 0.000000 12.408410
RightHandThumb1 -24.326973 -0.000000 -32.862282
LeftUpLeg -1.720952 12.403382 4.700159
LeftLeg -5.420907 -0.000000 0.000000
LeftFoot -20.083593 27.305365 -13.271498
LeftToeBase 26.922565 -0.000000 -0.000000
RightUpLeg -2.542779 -9.017133 -0.756908
RightLeg -1.915264 -0.000000 0.000000
RightFoot -21.402429 -22.481905 17.092429
RightToeBase 24.433862 -0.000000 -0.000000
92
root 16.437952 35.355219 -21.401156 110.386317 -88.061411 -101.242767
Spine -20.209263 -0.721987 3.406132
Head 8.246277 0.698533 -0.720886
LeftShoulder -15.027869 -33.703897 21.913230
LeftArm -0.217373 3.366893 -7.286979
LeftForeArm 12.875134 -0.000000 -2.377169
LeftHand -8.042561 -0.000000 -7.098729
LeftHandThumb1 -26.253704 0.000000 33.147579
RightShoulder -12.181487 -2.595374 -12.488306
RightArm 6.510179 34.710996 8.749313
RightForeArm -39.322271 -0.000000 4.869727
RightHand -6.286672 -0.000000 12.413752
RightHandThumb1 -24.326973 -0.000000 -32.862282
LeftUpLeg -1.725265 12.409101 4.729491
LeftLeg -5.384979 -0.000000 0.000000
LeftFoot -20.090626 27.296219 -13.278350
LeftToeBase 26.900838 -0.000000 -0.000000
RightUpLeg -2.538879 -8.991419 -0.731046
RightLeg -1.889119 -0.000000 0.000000
RightFoot -21.434476 -22.520974 17.096862
RightToeBase 24.452328 -0.000000 -0.000000
93
root 16.436958 35.355473 -21.409429 110.002978 -88.055172 -100.867490
Spine -20.173092 -0.720305 3.417592
Head 8.293270 0.687352 -0.716731
LeftShoulder -15.027495 -33.707290 21.859236
LeftArm -0.149307 3.475554 -7.326320
LeftForeArm 12.845419 -0.000000 -2.346706
LeftHand -8.056291 0.000000 -7.000265
LeftHandThumb1 -26.253704 0.000000 33.147579
RightShoulder -12.167232 -2.589850 -12.445290
RightArm 6.514131 34.572843 8.712612
RightForeArm -39.244539 0.000000 4.855517
RightHand -6.207266 -0.000000 12.229393
RightHandThumb1 -24.326973 -0.000000 -32.862282
LeftUpLeg -1.735866 12.416826 4.754567
LeftLeg -5.349509 -0.000000 0.000000
LeftFoot -20.094316 27.292698 -13.269847
LeftToeBase 26.908031 -0.000000 -0.000000
RightUpLeg -2.542522 -8.971731 -0.707493
RightLeg -1.860218 -0.000000 0.000000
RightFoot -21.445715 -22.562214 17.064616
RightToeBase 24.435968 -0.000000 -0.000000
94
root 16.435805 35.356189 -21.418879 110.008200 -88.043306 -100.887108
Spine -20.133964 -0.703203 3.421794
Head 8.351480 0.649050 -0.709674
LeftShoulder -15.011787 -33.684624 21.793978
LeftArm -0.083162 3.587900 -7.380542
LeftForeArm 12.840075 -0.000000 -2.283400
LeftHand -8.093162 -0.000000 -6.894040
LeftHandThumb1 -26.253704 0.000000 33.147579
RightShoulder -12.144651 -2.618300 -12.381648
RightArm 6.536325 34.543482 8.701284
RightForeArm -39.223648 -0.000000 4.865390
RightHand -6.224936 -0.000000 12.205991
RightHandThumb1 -24.326973 -0.000000 -32.862282
LeftUpLeg -1.739655 12.439394 4.785388
LeftLeg -5.309669 -0.000000 0.000000
LeftFoot -20.110759 27.282958 -13.296691
LeftToeBase 26.910729 -0.000000 -0.000000
RightUpLeg -2.548009 -8.926631 -0.682225
RightLeg -1.820645 -0.000000 0.000000
RightFoot -21.478423 -22.596018 17.087830
RightToeBase 24.398694 -0.000000 -0.000000
95
root 16.433407 35.356727 -21.427883 110.099610 -88.033662 -101.016350
Spine -20.064573 -0.688398 3.429456
Head 8.411450 0.589424 -0.736362
LeftShoulder -14.996270 -33.696220 21.711003
LeftArm -0.029731 3.742512 -7.427422
LeftForeArm 12.828049 -0.000000 -2.210032
LeftHand -8.107081 -0.000000 -6.783701
LeftHandThumb1 -26.253704 0.000000 33.147579
RightShoulder -12.107166 -2.628372 -12.314837
RightArm 6.538517 34.520749 8.689654
RightForeArm -39.311458 -0.000000 4.885794
RightHand -6.279889 -0.000000 12.075066
RightHandThumb1 -24.326973 -0.000000 -32.862282
LeftUpLeg -1.729468 12.436827 4.819108
LeftLeg -5.245582 -0.000000 0.000000
LeftFoot -20.145491 27.299732 -13.321496
LeftToeBase 26.952615 -0.000000 -0.000000
RightUpLeg -2.528248 -8.894391 -0.665129
RightLeg -1.781135 -0.000000 0.000000
RightFoot -21.496839 -22.638543 17.064047
RightToeBase 24.427468 -0.000000 -0.000000
96
root 16.431734 35.357324 -21.438288 110.352560 -88.013533 -101.325140
Spine -19.972665 -0.658344 3.446017
Head 8.485471 0.548229 -0.756125
LeftShoulder -14.981690 -33.635782 21.587839
LeftArm 0.083524 3.903635 -7.498834
LeftForeArm 12.748953 -0.000000 -2.161553
LeftHand -8.080559 -0.000000 -6.596421
LeftHandThumb1 -26.253704 0.000000 33.147579
RightShoulder -12.034917 -2.577147 -12.242804
RightArm 6.459110 34.354916 8.618699
RightForeArm -39.226875 -0.000000 4.949041
RightHand -6.324964 0.000000 11.980201
RightHandThumb1 -24.326973 -0.000000 -32.862282
LeftUpLeg -1.689615 12.476968 4.864134
LeftLeg -5.201785 -0.000000 0.000000
LeftFoot -20.148389 27.269880 -13.338938
LeftToeBase 26.871275 -0.000000 -0.000000
RightUpLeg -2.495796 -8.864332 -0.636336
RightLeg -1.734400 -0.000000 0.000000
RightFoot -21.526564 -22.659935 17.061548
RightToeBase 24.375397 -0.000000 -0.000000
97
root 16.432495 35.358598 -21.449706 109.909469 -88.005837 -100.913553
Spine -19.899536 -0.623344 3.456015
Head 8.540144 0.493708 -0.784038
LeftShoulder -14.929226 -33.592672 21.408272
LeftArm 0.198981 4.092016 -7.554892
LeftForeArm 12.698847 -0.000000 -2.101280
LeftHand -8.047631 -0.000000 -6.381195
LeftHandThumb1 -26.253704 0.000000 33.147579
RightShoulder -12.031815 -2.568517 -12.179463
RightArm 6.444518 34.208446 8.625478
RightForeArm -39.170163 -0.000000 5.043462
RightHand -6.473940 0.000000 11.631594
RightHandThumb1 -24.326973 -0.000000 -32.862282
LeftUpLeg -1.697766 12.475561 4.901591
LeftLeg -5.132985 -0.000000 0.000000
LeftFoot -20.159551 27.273670 -13.360575
LeftToeBase 26.884718 -0.000000 -0.000000
RightUpLeg -2.489729 -8.794176 -0.611870
RightLeg -1.684385 -0.000000 0.000000
RightFoot -21.561074 -22.748219 17.060364
RightToeBase 24.351127 -0.000000 -0.000000
98
root 16.435317 35.359940 -21.462636 109.631163 -88.000421 -100.656253
Spine -19.829947 -0.612085 3.453465
Head 8.591398 0.464515 -0.796636
LeftShoulder -14.912118 -33.534829 21.285130
LeftArm 0.237343 4.225266 -7.645863
LeftForeArm 12.874687 -0.000000 -1.875745
LeftHand -8.045292 -0.000000 -6.302738
LeftHandThumb1 -26.253704 0.000000 33.147579
RightShoulder -11.992505 -2.566829 -12.064408
RightArm 6.429938 34.076286 8.613931
RightForeArm -39.261725 0.000000 5.124490
RightHand -6.289883 -0.000000 11.688344
RightHandThumb1 -24.326973 -0.000000 -32.862282
LeftUpLeg -1.727850 12.480460 4.933145
LeftLeg -5.049529 -0.000000 0.000000
LeftFoot -20.168012 27.283331 -13.357631
LeftToeBase 26.910165 -0.000000 -0.000000
RightUpLeg -2.501899 -8.783233 -0.580606
RightLeg -1.635755 -0.000000 0.000000
RightFoot -21.625508 -22.767274 17.111976
RightToeBase 24.387219 -0.000000 -0.000000
99
root 16.438851 35.362032 -21.477836 109.160338 -87.995121 -100.244187
Spine -19.707521 -0.584483 3.447652
Head 8.643012 0.400296 -0.822129
LeftShoulder -14.874843 -33.438198 21.076221
LeftArm 0.351926 4.462679 -7.754857
LeftForeArm 12.943256 0.000000 -1.672810
LeftHand -8.095158 -0.000000 -5.829346
LeftHandThumb1 -26.253704 0.000000 33.147579
RightShoulder -11.916027 -2.536994 -11.907861
RightArm 6.310690 33.822757 8.506436
RightForeArm -39.180312 -0.000000 5.241528
RightHand -6.483042 -0.000000 11.449072
RightHandThumb1 -24.326973 -0.000000 -32.862282
LeftUpLeg -1.721730 12.431839 4.980653
LeftLeg -4.967714 -0.000000 0.000000
LeftFoot -20.186125 27.348063 -13.388202
LeftToeBase 26.878714 -0.000000 -0.000000
RightUpLeg -2.479332 -8.739223 -0.553487
RightLeg -1.569189 -0.000000 0.000000
RightFoot -21.629983 -22.838701 17.049898
RightToeBase 24.348128 -0.000000 -0.000000
